<?xml version="1.0" encoding="utf-8"?>
<!-- Generator: Adobe Illustrator 24.3.0, SVG Export Plug-In . SVG Version: 6.00 Build 0)  -->
<svg version="1.1" id="Layer_1" xmlns="http://www.w3.org/2000/svg" xmlns:xlink="http://www.w3.org/1999/xlink" x="0px" y="0px"
	 viewBox="0 0 337.41 36" style="enable-background:new 0 0 337.41 36;" xml:space="preserve">
<style type="text/css">
	.st0{fill:#93BDB2;}
</style>
<g>
	<path class="st0" d="M333.38,8.54h-20.36V33.6h20.36v-6.27h-13.2v-3.45h6.49v-6.17h-6.49v-2.95h13.2V8.54z M299.83,21.07
		c0,4.7-2.91,6.26-5.59,6.26h-3.31V14.8h3.31C296.92,14.8,299.83,16.37,299.83,21.07 M307.44,21.07c0-7.43-5.19-12.53-13.42-12.53
		h-10.25V33.6h10.25C302.25,33.6,307.44,28.5,307.44,21.07 M265.01,14.71h2.55c2.28,0,2.86,1.16,2.86,2.42
		c0,1.25-0.58,2.42-2.86,2.42h-2.55V14.71z M271.05,33.6h7.97l-5.28-9.58c3.27-1.75,4.3-4.39,4.3-7.34c0-4.43-3.89-8.14-9.49-8.14
		h-10.7V33.6h7.16v-8.06h1.88L271.05,33.6z M252.21,8.54h-20.36V33.6h20.36v-6.27h-13.2v-3.45h6.49v-6.17h-6.49v-2.95h13.2V8.54z
		 M210.01,33.6h8.14l10.56-31.33h-8.14l-6.45,20.72h-0.04l-6.18-20.72h-8.5L210.01,33.6z M176.76,16.82h0.18l1.57,6h-3.27
		L176.76,16.82z M179.98,28.63l1.39,4.97h7.74l-7.65-25.06h-9.09l-7.38,25.06h7.65l1.25-4.97H179.98z M152.42,33.6h7.16V8.54h-7.16
		V33.6z M129.91,20.26l6.13,13.34h8.86V8.54h-7.07v13.29l-5.86-13.29h-9.13V33.6h7.07V20.26z M110.08,21.11
		c0,3.54-2.19,6.13-5.59,6.13c-3.4,0-5.59-2.6-5.59-6.13c0-3.54,2.19-6.18,5.59-6.18C107.89,14.94,110.08,17.58,110.08,21.11
		 M91.28,21.11c0,7.56,5.91,12.98,13.2,12.98c7.34,0,13.2-5.41,13.2-12.98c0-7.56-5.86-13.02-13.2-13.02
		C97.19,8.09,91.28,13.55,91.28,21.11 M87.48,33.6v-6.27H77.19V8.54h-7.16V33.6H87.48z M57.27,21.11c0,3.54-2.19,6.13-5.59,6.13
		s-5.59-2.6-5.59-6.13c0-3.54,2.19-6.18,5.59-6.18S57.27,17.58,57.27,21.11 M38.48,21.11c0,7.56,5.91,12.98,13.2,12.98
		c7.34,0,13.2-5.41,13.2-12.98c0-7.56-5.86-13.02-13.2-13.02C44.38,8.09,38.48,13.55,38.48,21.11 M1.82,17.93
		c0,9.44,7.16,16.2,16.42,16.2c7.12,0,14.28-4.39,16.02-12.4h-8.73c-0.94,3.22-3.8,5.15-7.29,5.15c-5.01,0-8.28-3.8-8.28-8.95
		c0-5.15,3.27-8.95,8.28-8.95c3.49,0,6.35,1.92,7.29,5.15h8.73c-1.75-8.01-8.91-12.4-16.02-12.4C8.98,1.73,1.82,8.49,1.82,17.93"/>
</g>
</svg>
